%TF.GenerationSoftware,KiCad,Pcbnew,(6.0.5)*%
%TF.CreationDate,2022-06-11T19:55:53+02:00*%
%TF.ProjectId,SFP_Back2Back,5346505f-4261-4636-9b32-4261636b2e6b,2.0*%
%TF.SameCoordinates,Original*%
%TF.FileFunction,Paste,Top*%
%TF.FilePolarity,Positive*%
%FSLAX46Y46*%
G04 Gerber Fmt 4.6, Leading zero omitted, Abs format (unit mm)*
G04 Created by KiCad (PCBNEW (6.0.5)) date 2022-06-11 19:55:53*
%MOMM*%
%LPD*%
G01*
G04 APERTURE LIST*
G04 Aperture macros list*
%AMRoundRect*
0 Rectangle with rounded corners*
0 $1 Rounding radius*
0 $2 $3 $4 $5 $6 $7 $8 $9 X,Y pos of 4 corners*
0 Add a 4 corners polygon primitive as box body*
4,1,4,$2,$3,$4,$5,$6,$7,$8,$9,$2,$3,0*
0 Add four circle primitives for the rounded corners*
1,1,$1+$1,$2,$3*
1,1,$1+$1,$4,$5*
1,1,$1+$1,$6,$7*
1,1,$1+$1,$8,$9*
0 Add four rect primitives between the rounded corners*
20,1,$1+$1,$2,$3,$4,$5,0*
20,1,$1+$1,$4,$5,$6,$7,0*
20,1,$1+$1,$6,$7,$8,$9,0*
20,1,$1+$1,$8,$9,$2,$3,0*%
G04 Aperture macros list end*
%ADD10RoundRect,0.250000X0.375000X0.850000X-0.375000X0.850000X-0.375000X-0.850000X0.375000X-0.850000X0*%
%ADD11R,2.000000X0.500000*%
%ADD12RoundRect,0.250000X0.250000X0.475000X-0.250000X0.475000X-0.250000X-0.475000X0.250000X-0.475000X0*%
%ADD13RoundRect,0.250000X-0.475000X0.250000X-0.475000X-0.250000X0.475000X-0.250000X0.475000X0.250000X0*%
%ADD14RoundRect,0.250000X0.475000X-0.250000X0.475000X0.250000X-0.475000X0.250000X-0.475000X-0.250000X0*%
%ADD15RoundRect,0.250000X0.450000X-0.262500X0.450000X0.262500X-0.450000X0.262500X-0.450000X-0.262500X0*%
%ADD16RoundRect,0.250000X-0.450000X0.262500X-0.450000X-0.262500X0.450000X-0.262500X0.450000X0.262500X0*%
%ADD17RoundRect,0.250000X1.500000X0.550000X-1.500000X0.550000X-1.500000X-0.550000X1.500000X-0.550000X0*%
%ADD18R,3.600000X2.700000*%
%ADD19RoundRect,0.250000X-1.000000X1.950000X-1.000000X-1.950000X1.000000X-1.950000X1.000000X1.950000X0*%
%ADD20R,2.300000X2.500000*%
%ADD21R,4.600000X1.100000*%
%ADD22R,4.550000X5.250000*%
G04 APERTURE END LIST*
D10*
%TO.C,L201*%
X234575000Y-119500000D03*
X232425000Y-119500000D03*
%TD*%
%TO.C,L202*%
X234575000Y-115500000D03*
X232425000Y-115500000D03*
%TD*%
D11*
%TO.C,J301*%
X219400000Y-130200000D03*
X219400000Y-131000000D03*
X219400000Y-131800000D03*
X219400000Y-132600000D03*
X219400000Y-133400000D03*
X219400000Y-134200000D03*
X219400000Y-135000000D03*
X219400000Y-135800000D03*
X219400000Y-136600000D03*
X219400000Y-137400000D03*
X211200000Y-137800000D03*
X211200000Y-137000000D03*
X211200000Y-136200000D03*
X211200000Y-135400000D03*
X211200000Y-134600000D03*
X211200000Y-133800000D03*
X211200000Y-133000000D03*
X211200000Y-132200000D03*
X211200000Y-131400000D03*
X211200000Y-130600000D03*
%TD*%
D12*
%TO.C,C201*%
X234450000Y-124000000D03*
X232550000Y-124000000D03*
%TD*%
%TO.C,C202*%
X234450000Y-122000000D03*
X232550000Y-122000000D03*
%TD*%
D13*
%TO.C,C203*%
X230500000Y-120050000D03*
X230500000Y-121950000D03*
%TD*%
D14*
%TO.C,C204*%
X230500000Y-116950000D03*
X230500000Y-115050000D03*
%TD*%
%TO.C,C205*%
X228500000Y-116950000D03*
X228500000Y-115050000D03*
%TD*%
D13*
%TO.C,C304*%
X230500000Y-133050000D03*
X230500000Y-134950000D03*
%TD*%
D11*
%TO.C,J201*%
X219400000Y-112200000D03*
X219400000Y-113000000D03*
X219400000Y-113800000D03*
X219400000Y-114600000D03*
X219400000Y-115400000D03*
X219400000Y-116200000D03*
X219400000Y-117000000D03*
X219400000Y-117800000D03*
X219400000Y-118600000D03*
X219400000Y-119400000D03*
X211200000Y-119800000D03*
X211200000Y-119000000D03*
X211200000Y-118200000D03*
X211200000Y-117400000D03*
X211200000Y-116600000D03*
X211200000Y-115800000D03*
X211200000Y-115000000D03*
X211200000Y-114200000D03*
X211200000Y-113400000D03*
X211200000Y-112600000D03*
%TD*%
D14*
%TO.C,C303*%
X230500000Y-129950000D03*
X230500000Y-128050000D03*
%TD*%
D10*
%TO.C,L302*%
X234575000Y-134500000D03*
X232425000Y-134500000D03*
%TD*%
D13*
%TO.C,C305*%
X228500000Y-133050000D03*
X228500000Y-134950000D03*
%TD*%
D10*
%TO.C,L301*%
X234575000Y-130500000D03*
X232425000Y-130500000D03*
%TD*%
D12*
%TO.C,C302*%
X234450000Y-128000000D03*
X232550000Y-128000000D03*
%TD*%
%TO.C,C301*%
X234450000Y-126000000D03*
X232550000Y-126000000D03*
%TD*%
D15*
%TO.C,R101*%
X252500000Y-129662500D03*
X252500000Y-127837500D03*
%TD*%
%TO.C,R202*%
X228196000Y-109656500D03*
X228196000Y-107831500D03*
%TD*%
D16*
%TO.C,R301*%
X230196000Y-140343500D03*
X230196000Y-142168500D03*
%TD*%
D15*
%TO.C,R204*%
X232196000Y-109656500D03*
X232196000Y-107831500D03*
%TD*%
D17*
%TO.C,C101*%
X236500000Y-139000000D03*
X241900000Y-139000000D03*
%TD*%
D18*
%TO.C,L101*%
X252700000Y-112950000D03*
X252700000Y-104650000D03*
%TD*%
D15*
%TO.C,R305*%
X232196000Y-142168500D03*
X232196000Y-140343500D03*
%TD*%
D16*
%TO.C,R304*%
X224196000Y-140343500D03*
X224196000Y-142168500D03*
%TD*%
D15*
%TO.C,R203*%
X230196000Y-109656500D03*
X230196000Y-107831500D03*
%TD*%
D19*
%TO.C,C102*%
X240500000Y-113000000D03*
X240500000Y-105600000D03*
%TD*%
D16*
%TO.C,R303*%
X226196000Y-140343500D03*
X226196000Y-142168500D03*
%TD*%
D20*
%TO.C,D101*%
X239000000Y-118150000D03*
X239000000Y-122450000D03*
%TD*%
D15*
%TO.C,R201*%
X226196000Y-109656500D03*
X226196000Y-107831500D03*
%TD*%
D16*
%TO.C,R302*%
X228196000Y-140343500D03*
X228196000Y-142168500D03*
%TD*%
%TO.C,R205*%
X224196000Y-107831500D03*
X224196000Y-109656500D03*
%TD*%
D21*
%TO.C,U1*%
X245175000Y-123710000D03*
X245175000Y-122010000D03*
X245175000Y-120310000D03*
X245175000Y-118610000D03*
X245175000Y-116910000D03*
D22*
X251900000Y-117535000D03*
X256750000Y-123085000D03*
X251900000Y-123085000D03*
X256750000Y-117535000D03*
%TD*%
M02*
