M48
; DRILL file {KiCad (6.0.5)} date Sat Jun 11 16:34:17 2022
; FORMAT={-:-/ absolute / inch / decimal}
; #@! TF.CreationDate,2022-06-11T16:34:17+02:00
; #@! TF.GenerationSoftware,Kicad,Pcbnew,(6.0.5)
; #@! TF.FileFunction,Plated,1,2,PTH
FMAT,2
INCH
; #@! TA.AperFunction,Plated,PTH,ViaDrill
T1C0.0118
; #@! TA.AperFunction,Plated,PTH,ViaDrill
T2C0.0157
; #@! TA.AperFunction,Plated,PTH,ComponentDrill
T3C0.0335
; #@! TA.AperFunction,Plated,PTH,ComponentDrill
T4C0.0354
; #@! TA.AperFunction,Plated,PTH,ComponentDrill
T5C0.0374
; #@! TA.AperFunction,Plated,PTH,ComponentDrill
T6C0.0394
; #@! TA.AperFunction,Plated,PTH,ComponentDrill
T7C0.0413
%
G90
G05
T1
X7.126Y-4.1339
X7.126Y-4.2913
X7.126Y-4.4488
X7.126Y-4.6063
X7.126Y-4.7638
X7.126Y-4.9213
X7.126Y-5.0787
X7.126Y-5.2362
X7.126Y-5.3937
X7.126Y-5.5512
X7.126Y-5.7087
X9.0157Y-4.8031
X9.0157Y-4.8819
X9.0157Y-4.9606
X9.0157Y-5.0394
X9.0945Y-4.8819
X9.0945Y-4.9606
X9.2126Y-4.0945
X9.2126Y-4.1732
X9.2126Y-5.5906
X9.2126Y-5.6693
X9.2126Y-5.748
X9.2913Y-4.0945
X9.2913Y-4.252
X9.2913Y-4.3307
X9.2913Y-4.4094
X9.2913Y-4.4882
X9.2913Y-4.5669
X9.2913Y-4.6457
X9.2913Y-4.7244
X9.2913Y-4.8031
X9.2913Y-4.9606
X9.2913Y-5.0394
X9.2913Y-5.1181
X9.2913Y-5.1969
X9.2913Y-5.2756
X9.2913Y-5.3543
X9.2913Y-5.5906
X9.2913Y-5.6693
X9.2913Y-5.748
X9.3701Y-4.0945
X9.3701Y-4.252
X9.3701Y-4.3307
X9.3701Y-4.4094
X9.3701Y-4.4882
X9.3701Y-4.5669
X9.3701Y-4.7244
X9.3701Y-4.9606
X9.3701Y-5.1969
X9.3701Y-5.2756
X9.3701Y-5.3543
X9.3701Y-5.5906
X9.3701Y-5.6693
X9.3701Y-5.748
X9.4488Y-4.3307
X9.4488Y-4.5669
X9.4488Y-4.7244
X9.4488Y-4.9606
X9.4488Y-5.1969
X9.4488Y-5.2756
X9.4488Y-5.3543
X9.4488Y-5.5906
X9.4488Y-5.6693
X9.4488Y-5.748
X9.5276Y-4.3307
X9.5276Y-4.7244
X9.5276Y-4.8819
X9.5276Y-5.1969
X9.5276Y-5.2756
X9.5276Y-5.3543
X9.5276Y-5.5906
X9.5276Y-5.6693
X9.5276Y-5.748
X9.6063Y-4.0945
X9.6063Y-4.252
X9.6063Y-4.3307
X9.6063Y-4.4094
X9.6063Y-4.4882
X9.6063Y-5.1969
X9.6063Y-5.2756
X9.6063Y-5.3543
X9.6063Y-5.5906
X9.6063Y-5.6693
X9.6063Y-5.748
X9.685Y-4.252
X9.685Y-4.3307
X9.685Y-4.4094
X9.685Y-4.4882
X9.685Y-5.1969
X9.685Y-5.2756
X9.685Y-5.3543
X9.685Y-5.5906
X9.685Y-5.6693
X9.685Y-5.748
X9.7638Y-4.1732
X9.7638Y-4.252
X9.7638Y-4.3307
X9.7638Y-5.5906
X9.7638Y-5.6693
X9.7638Y-5.748
X9.8425Y-4.1732
X9.8425Y-4.252
X9.8425Y-4.3307
X9.8425Y-4.5669
X9.8425Y-4.7244
X9.8425Y-4.8819
X9.8425Y-5.0394
X9.8425Y-5.1181
X9.8425Y-5.1969
X9.8425Y-5.4331
X9.8425Y-5.5118
X9.8425Y-5.5906
X9.8425Y-5.6693
X9.8425Y-5.748
X9.9213Y-4.252
X9.9213Y-4.3307
X9.9213Y-5.1969
X9.9213Y-5.5906
X9.9213Y-5.6693
X9.9213Y-5.748
X9.9996Y-4.3306
X10.0Y-4.252
X10.0Y-4.5669
X10.0Y-4.7244
X10.0Y-4.8819
X10.0Y-5.1969
X10.0Y-5.2756
X10.0Y-5.3543
X10.0Y-5.5906
X10.0Y-5.6693
X10.0Y-5.748
X10.0787Y-4.0945
X10.0787Y-4.1732
X10.0787Y-4.252
X10.0787Y-4.3307
X10.0787Y-4.4094
X10.0787Y-4.4882
X10.0787Y-5.1969
X10.0787Y-5.2756
X10.0787Y-5.3543
X10.0787Y-5.4331
X10.0787Y-5.5118
X10.0787Y-5.5906
X10.0787Y-5.6693
X10.079Y-5.748
X10.1575Y-4.0945
X10.1575Y-4.1732
X10.1575Y-4.252
X10.1575Y-4.3307
X10.1575Y-4.4094
X10.1575Y-4.4882
X10.1575Y-4.5669
X10.1575Y-4.7244
X10.1575Y-4.8819
X10.1575Y-5.1969
X10.1575Y-5.2756
X10.1575Y-5.3543
X10.1575Y-5.4331
X10.1575Y-5.5118
X10.1575Y-5.5906
X10.1575Y-5.6693
X10.1575Y-5.748
T2
X7.126Y-3.9764
X7.126Y-5.8661
X7.3307Y-3.9764
X7.3307Y-5.8661
X7.5354Y-3.9764
X7.5354Y-5.8661
X7.7402Y-3.9764
X7.7402Y-5.8661
X7.9449Y-3.9764
X7.9449Y-5.8661
X8.1496Y-3.9764
X8.1496Y-5.8661
X8.3543Y-3.9764
X8.3543Y-5.8661
X8.3854Y-4.5911
X8.3858Y-4.4646
X8.3858Y-4.5276
X8.3858Y-4.6535
X8.3858Y-5.1732
X8.3858Y-5.2362
X8.3858Y-5.2992
X8.3858Y-5.3622
X8.4134Y-4.5591
X8.4134Y-5.2677
X8.5197Y-4.5748
X8.5591Y-3.9764
X8.5591Y-5.8661
X8.5669Y-4.5768
X8.5715Y-5.2422
X8.573Y-5.2895
X8.7638Y-3.9764
X8.7638Y-5.8661
X8.8263Y-4.4013
X8.8266Y-5.4413
X8.9054Y-4.4011
X8.9054Y-5.4413
X8.9449Y-4.1929
X8.9685Y-3.9764
X8.9685Y-5.8661
X8.9841Y-4.4003
X8.9841Y-5.4413
X9.0157Y-4.7244
X9.0157Y-5.1181
X9.0236Y-5.4764
X9.0628Y-4.3994
X9.0628Y-5.4413
X9.0748Y-4.6457
X9.0748Y-5.1969
X9.1416Y-4.3993
X9.1416Y-5.4413
X9.1732Y-3.9764
X9.1732Y-5.8661
X9.378Y-3.9764
X9.378Y-5.8661
X9.5276Y-4.6024
X9.5827Y-3.9764
X9.5827Y-5.8661
X9.7874Y-3.9764
X9.7874Y-5.8661
X9.9921Y-3.9764
X9.9921Y-5.8661
X10.1969Y-3.9764
X10.1969Y-5.8661
T3
X8.4409Y-4.2864
X8.4409Y-4.9951
T4
X10.0394Y-5.0181
X10.0394Y-5.1181
T5
X8.1575Y-4.2864
X8.1575Y-4.8474
X8.1575Y-4.9951
X8.1575Y-5.5561
X8.3425Y-4.2864
X8.3425Y-4.8474
X8.3425Y-4.9951
X8.3425Y-5.5561
X8.5394Y-4.2864
X8.5394Y-4.8474
X8.5394Y-4.9951
X8.5394Y-5.5561
X8.7205Y-4.378
X8.7205Y-4.5669
X8.7205Y-4.7559
X8.7205Y-5.0866
X8.7205Y-5.2756
X8.7205Y-5.4646
T6
X8.4833Y-4.1339
X8.4833Y-5.7087
X8.5833Y-4.1339
X8.5833Y-5.7087
X8.6833Y-4.1339
X8.6833Y-5.7087
X9.422Y-5.0689
X9.522Y-5.0689
X9.622Y-5.0689
X9.722Y-5.0689
T7
X7.2598Y-4.2864
X7.2598Y-4.624
X7.2598Y-4.9951
X7.2598Y-5.3327
X7.4567Y-4.8474
X7.4567Y-5.5561
X7.6535Y-4.2864
X7.6535Y-4.9951
X7.8504Y-4.8474
X7.8504Y-5.5561
X8.0472Y-4.2864
X8.0472Y-4.5098
X8.0472Y-4.7224
X8.0472Y-4.9951
X8.0472Y-5.2185
X8.0472Y-5.4311
X8.2441Y-4.8474
X8.2441Y-5.5561
X8.6378Y-4.8474
X8.6378Y-5.5561
T6
G00X9.7244Y-5.5118
M15
G01X9.7244Y-5.4331
M16
G05
G00X9.8819Y-5.2874
M15
G01X9.8031Y-5.2874
M16
G05
G00X9.9606Y-5.5118
M15
G01X9.9606Y-5.4331
M16
G05
T0
M30
