%TF.GenerationSoftware,KiCad,Pcbnew,(6.0.5)*%
%TF.CreationDate,2022-06-11T19:55:53+02:00*%
%TF.ProjectId,SFP_Back2Back,5346505f-4261-4636-9b32-4261636b2e6b,2.0*%
%TF.SameCoordinates,Original*%
%TF.FileFunction,Soldermask,Bot*%
%TF.FilePolarity,Negative*%
%FSLAX46Y46*%
G04 Gerber Fmt 4.6, Leading zero omitted, Abs format (unit mm)*
G04 Created by KiCad (PCBNEW (6.0.5)) date 2022-06-11 19:55:53*
%MOMM*%
%LPD*%
G01*
G04 APERTURE LIST*
G04 Aperture macros list*
%AMRoundRect*
0 Rectangle with rounded corners*
0 $1 Rounding radius*
0 $2 $3 $4 $5 $6 $7 $8 $9 X,Y pos of 4 corners*
0 Add a 4 corners polygon primitive as box body*
4,1,4,$2,$3,$4,$5,$6,$7,$8,$9,$2,$3,0*
0 Add four circle primitives for the rounded corners*
1,1,$1+$1,$2,$3*
1,1,$1+$1,$4,$5*
1,1,$1+$1,$6,$7*
1,1,$1+$1,$8,$9*
0 Add four rect primitives between the rounded corners*
20,1,$1+$1,$2,$3,$4,$5,0*
20,1,$1+$1,$4,$5,$6,$7,0*
20,1,$1+$1,$6,$7,$8,$9,0*
20,1,$1+$1,$8,$9,$2,$3,0*%
G04 Aperture macros list end*
%ADD10C,0.100000*%
%ADD11R,2.000000X2.000000*%
%ADD12C,1.500000*%
%ADD13C,2.000000*%
%ADD14R,3.500000X3.500000*%
%ADD15RoundRect,0.750000X0.750000X1.000000X-0.750000X1.000000X-0.750000X-1.000000X0.750000X-1.000000X0*%
%ADD16RoundRect,0.875000X0.875000X0.875000X-0.875000X0.875000X-0.875000X-0.875000X0.875000X-0.875000X0*%
%ADD17R,1.800000X1.800000*%
%ADD18C,1.800000*%
%ADD19R,1.700000X1.700000*%
%ADD20O,1.700000X1.700000*%
%ADD21C,1.000000*%
G04 APERTURE END LIST*
D10*
G36*
X260000000Y-150000000D02*
G01*
X180000000Y-150000000D01*
X180000000Y-148000000D01*
X260000000Y-148000000D01*
X260000000Y-150000000D01*
G37*
X260000000Y-150000000D02*
X180000000Y-150000000D01*
X180000000Y-148000000D01*
X260000000Y-148000000D01*
X260000000Y-150000000D01*
G36*
X260000000Y-102000000D02*
G01*
X180000000Y-102000000D01*
X180000000Y-100000000D01*
X260000000Y-100000000D01*
X260000000Y-102000000D01*
G37*
X260000000Y-102000000D02*
X180000000Y-102000000D01*
X180000000Y-100000000D01*
X260000000Y-100000000D01*
X260000000Y-102000000D01*
D11*
%TO.C,J301*%
X214400000Y-126875000D03*
X204400000Y-132550000D03*
D12*
X211900000Y-126875000D03*
D11*
X204400000Y-137950000D03*
D12*
X221500000Y-134000000D03*
D11*
X209400000Y-141125000D03*
D12*
X216900000Y-126875000D03*
D11*
X199400000Y-141125000D03*
X184400000Y-126875000D03*
D12*
X207200000Y-126875000D03*
X216900000Y-141125000D03*
D11*
X184400000Y-135450000D03*
D12*
X221500000Y-129200000D03*
X211900000Y-141125000D03*
D11*
X204400000Y-126875000D03*
X194400000Y-126875000D03*
X189400000Y-141125000D03*
D12*
X221500000Y-138800000D03*
X207200000Y-141125000D03*
D11*
X219400000Y-141125000D03*
D13*
X215300000Y-138800000D03*
X215300000Y-129200000D03*
%TD*%
D12*
%TO.C,J201*%
X207200000Y-123125000D03*
X221500000Y-116000000D03*
D11*
X209400000Y-123125000D03*
X219400000Y-123125000D03*
X189400000Y-123125000D03*
D12*
X221500000Y-111200000D03*
D11*
X214400000Y-108875000D03*
D12*
X221500000Y-120800000D03*
D11*
X204400000Y-119950000D03*
X204400000Y-114550000D03*
X184400000Y-108875000D03*
D12*
X216900000Y-123125000D03*
D11*
X194400000Y-108875000D03*
X199400000Y-123125000D03*
D12*
X211900000Y-123125000D03*
D11*
X184400000Y-117450000D03*
X204400000Y-108875000D03*
D12*
X207200000Y-108875000D03*
X211900000Y-108875000D03*
X216900000Y-108875000D03*
D13*
X215300000Y-120800000D03*
X215300000Y-111200000D03*
%TD*%
D14*
%TO.C,J101*%
X247000000Y-139000000D03*
D15*
X253000000Y-139000000D03*
D16*
X250000000Y-134300000D03*
%TD*%
D17*
%TO.C,D103*%
X255000000Y-130000000D03*
D18*
X255000000Y-127460000D03*
%TD*%
D19*
%TO.C,J1*%
X246940000Y-128750000D03*
D20*
X244400000Y-128750000D03*
X241860000Y-128750000D03*
X239320000Y-128750000D03*
%TD*%
D19*
%TO.C,J2*%
X215475000Y-145000000D03*
D20*
X218015000Y-145000000D03*
X220555000Y-145000000D03*
%TD*%
D19*
%TO.C,J3*%
X215475000Y-105000000D03*
D20*
X218015000Y-105000000D03*
X220555000Y-105000000D03*
%TD*%
D21*
%TO.C,N2*%
X196000000Y-116000000D03*
%TD*%
%TO.C,N1*%
X196000000Y-134000000D03*
%TD*%
M02*
